<svg xmlns="http://www.w3.org/2000/svg" viewBox="0 0 400 600" width="400" height="600">
  <defs>
    <linearGradient id="bg" x1="0" y1="0" x2="0" y2="1"><stop offset="0" stop-color="#f9e08a"/><stop offset="0.5" stop-color="#f2a64a"/><stop offset="1" stop-color="#d9622f"/></linearGradient>
    <linearGradient id="shade" x1="0" y1="0" x2="0" y2="1">
      <stop offset="0" stop-color="#000" stop-opacity="0"/>
      <stop offset="1" stop-color="#000" stop-opacity="0.78"/>
    </linearGradient>
  </defs>
  <rect width="400" height="600" fill="url(#bg)"/>
  <circle cx="200" cy="230" r="120" fill="#fff1c2" fill-opacity="0.5"/>
     <g transform="translate(247 373) rotate(68)"><path d="M0 -12 C 12 -6.0, 12 6.0, 0 12 C -12 6.0, -12 -6.0, 0 -12 Z" fill="#f4b33c"/><line x1="0" y1="-12" x2="0" y2="12" stroke="#7a2414" stroke-opacity="0.5"/></g><g transform="translate(105 406) rotate(86)"><path d="M0 -18 C 18 -9.0, 18 9.0, 0 18 C -18 9.0, -18 -9.0, 0 -18 Z" fill="#c4472d"/><line x1="0" y1="-18" x2="0" y2="18" stroke="#7a2414" stroke-opacity="0.5"/></g><g transform="translate(247 369) rotate(85)"><path d="M0 -18 C 18 -9.0, 18 9.0, 0 18 C -18 9.0, -18 -9.0, 0 -18 Z" fill="#c4472d"/><line x1="0" y1="-18" x2="0" y2="18" stroke="#7a2414" stroke-opacity="0.5"/></g><g transform="translate(325 418) rotate(97)"><path d="M0 -12 C 12 -6.0, 12 6.0, 0 12 C -12 6.0, -12 -6.0, 0 -12 Z" fill="#c4472d"/><line x1="0" y1="-12" x2="0" y2="12" stroke="#7a2414" stroke-opacity="0.5"/></g><g transform="translate(370 291) rotate(40)"><path d="M0 -12 C 12 -6.0, 12 6.0, 0 12 C -12 6.0, -12 -6.0, 0 -12 Z" fill="#a8321f"/><line x1="0" y1="-12" x2="0" y2="12" stroke="#7a2414" stroke-opacity="0.5"/></g><g transform="translate(131 86) rotate(33)"><path d="M0 -18 C 18 -9.0, 18 9.0, 0 18 C -18 9.0, -18 -9.0, 0 -18 Z" fill="#c4472d"/><line x1="0" y1="-18" x2="0" y2="18" stroke="#7a2414" stroke-opacity="0.5"/></g><g transform="translate(312 92) rotate(26)"><path d="M0 -14 C 14 -7.0, 14 7.0, 0 14 C -14 7.0, -14 -7.0, 0 -14 Z" fill="#a8321f"/><line x1="0" y1="-14" x2="0" y2="14" stroke="#7a2414" stroke-opacity="0.5"/></g><g transform="translate(114 405) rotate(107)"><path d="M0 -11 C 11 -5.5, 11 5.5, 0 11 C -11 5.5, -11 -5.5, 0 -11 Z" fill="#e56b2c"/><line x1="0" y1="-11" x2="0" y2="11" stroke="#7a2414" stroke-opacity="0.5"/></g><g transform="translate(146 167) rotate(71)"><path d="M0 -15 C 15 -7.5, 15 7.5, 0 15 C -15 7.5, -15 -7.5, 0 -15 Z" fill="#a8321f"/><line x1="0" y1="-15" x2="0" y2="15" stroke="#7a2414" stroke-opacity="0.5"/></g><g transform="translate(32 162) rotate(105)"><path d="M0 -10 C 10 -5.0, 10 5.0, 0 10 C -10 5.0, -10 -5.0, 0 -10 Z" fill="#c4472d"/><line x1="0" y1="-10" x2="0" y2="10" stroke="#7a2414" stroke-opacity="0.5"/></g><g transform="translate(203 311) rotate(6)"><path d="M0 -13 C 13 -6.5, 13 6.5, 0 13 C -13 6.5, -13 -6.5, 0 -13 Z" fill="#e56b2c"/><line x1="0" y1="-13" x2="0" y2="13" stroke="#7a2414" stroke-opacity="0.5"/></g><g transform="translate(227 117) rotate(31)"><path d="M0 -22 C 22 -11.0, 22 11.0, 0 22 C -22 11.0, -22 -11.0, 0 -22 Z" fill="#c4472d"/><line x1="0" y1="-22" x2="0" y2="22" stroke="#7a2414" stroke-opacity="0.5"/></g><g transform="translate(306 161) rotate(84)"><path d="M0 -10 C 10 -5.0, 10 5.0, 0 10 C -10 5.0, -10 -5.0, 0 -10 Z" fill="#e56b2c"/><line x1="0" y1="-10" x2="0" y2="10" stroke="#7a2414" stroke-opacity="0.5"/></g><g transform="translate(52 128) rotate(128)"><path d="M0 -11 C 11 -5.5, 11 5.5, 0 11 C -11 5.5, -11 -5.5, 0 -11 Z" fill="#c4472d"/><line x1="0" y1="-11" x2="0" y2="11" stroke="#7a2414" stroke-opacity="0.5"/></g><g transform="translate(303 314) rotate(107)"><path d="M0 -11 C 11 -5.5, 11 5.5, 0 11 C -11 5.5, -11 -5.5, 0 -11 Z" fill="#e56b2c"/><line x1="0" y1="-11" x2="0" y2="11" stroke="#7a2414" stroke-opacity="0.5"/></g><g transform="translate(213 158) rotate(179)"><path d="M0 -19 C 19 -9.5, 19 9.5, 0 19 C -19 9.5, -19 -9.5, 0 -19 Z" fill="#c4472d"/><line x1="0" y1="-19" x2="0" y2="19" stroke="#7a2414" stroke-opacity="0.5"/></g><g transform="translate(84 148) rotate(13)"><path d="M0 -14 C 14 -7.0, 14 7.0, 0 14 C -14 7.0, -14 -7.0, 0 -14 Z" fill="#c4472d"/><line x1="0" y1="-14" x2="0" y2="14" stroke="#7a2414" stroke-opacity="0.5"/></g><g transform="translate(294 409) rotate(68)"><path d="M0 -21 C 21 -10.5, 21 10.5, 0 21 C -21 10.5, -21 -10.5, 0 -21 Z" fill="#e56b2c"/><line x1="0" y1="-21" x2="0" y2="21" stroke="#7a2414" stroke-opacity="0.5"/></g><g transform="translate(304 77) rotate(180)"><path d="M0 -16 C 16 -8.0, 16 8.0, 0 16 C -16 8.0, -16 -8.0, 0 -16 Z" fill="#c4472d"/><line x1="0" y1="-16" x2="0" y2="16" stroke="#7a2414" stroke-opacity="0.5"/></g><g transform="translate(131 142) rotate(93)"><path d="M0 -20 C 20 -10.0, 20 10.0, 0 20 C -20 10.0, -20 -10.0, 0 -20 Z" fill="#c4472d"/><line x1="0" y1="-20" x2="0" y2="20" stroke="#7a2414" stroke-opacity="0.5"/></g><g transform="translate(277 362) rotate(88)"><path d="M0 -11 C 11 -5.5, 11 5.5, 0 11 C -11 5.5, -11 -5.5, 0 -11 Z" fill="#c4472d"/><line x1="0" y1="-11" x2="0" y2="11" stroke="#7a2414" stroke-opacity="0.5"/></g><g transform="translate(309 247) rotate(53)"><path d="M0 -16 C 16 -8.0, 16 8.0, 0 16 C -16 8.0, -16 -8.0, 0 -16 Z" fill="#a8321f"/><line x1="0" y1="-16" x2="0" y2="16" stroke="#7a2414" stroke-opacity="0.5"/></g><g transform="translate(111 354) rotate(97)"><path d="M0 -22 C 22 -11.0, 22 11.0, 0 22 C -22 11.0, -22 -11.0, 0 -22 Z" fill="#c4472d"/><line x1="0" y1="-22" x2="0" y2="22" stroke="#7a2414" stroke-opacity="0.5"/></g><g transform="translate(321 228) rotate(110)"><path d="M0 -11 C 11 -5.5, 11 5.5, 0 11 C -11 5.5, -11 -5.5, 0 -11 Z" fill="#c4472d"/><line x1="0" y1="-11" x2="0" y2="11" stroke="#7a2414" stroke-opacity="0.5"/></g><g transform="translate(119 173) rotate(69)"><path d="M0 -15 C 15 -7.5, 15 7.5, 0 15 C -15 7.5, -15 -7.5, 0 -15 Z" fill="#a8321f"/><line x1="0" y1="-15" x2="0" y2="15" stroke="#7a2414" stroke-opacity="0.5"/></g><g transform="translate(55 217) rotate(26)"><path d="M0 -18 C 18 -9.0, 18 9.0, 0 18 C -18 9.0, -18 -9.0, 0 -18 Z" fill="#f4b33c"/><line x1="0" y1="-18" x2="0" y2="18" stroke="#7a2414" stroke-opacity="0.5"/></g>
     <path d="M140 250 Q 200 320 260 250" fill="none" stroke="#7a2414" stroke-width="10" stroke-linecap="round"/>
     <circle cx="160" cy="200" r="11" fill="#7a2414"/><circle cx="240" cy="200" r="11" fill="#7a2414"/>
  <rect y="330" width="400" height="270" fill="url(#shade)"/>
  <text x="32" y="44" font-family="Segoe UI, Arial, sans-serif" font-size="13" font-weight="700" fill="#ffffff" fill-opacity="0.85" letter-spacing="3">ПРЕМЬЕРА · 2026</text>
  <rect x="318" y="24" width="56" height="30" rx="8" fill="#000" fill-opacity="0.45" stroke="#fff" stroke-opacity="0.6"/>
  <text x="346" y="45" text-anchor="middle" font-family="Segoe UI, Arial, sans-serif" font-size="15" font-weight="700" fill="#fff">12+</text>
  <text x="32" y="452" font-family="Segoe UI, Arial, sans-serif" font-size="15" fill="#ffffff" fill-opacity="0.88">Бір той, үш отбасы, ешқандай жоспар</text>
  <text x="32" y="506" font-family="Segoe UI, Arial, sans-serif" font-size="50" font-weight="800" fill="#ffffff" letter-spacing="1">АЛТЫН</text><text x="32" y="560" font-family="Segoe UI, Arial, sans-serif" font-size="50" font-weight="800" fill="#ffffff" letter-spacing="1">КҮЗ</text>
</svg>
