<svg xmlns="http://www.w3.org/2000/svg" viewBox="0 0 400 600" width="400" height="600">
  <defs>
    <linearGradient id="bg" x1="0" y1="0" x2="0" y2="1"><stop offset="0" stop-color="#f7d9a0"/><stop offset="0.5" stop-color="#f0a565"/><stop offset="1" stop-color="#c9603a"/></linearGradient>
    <linearGradient id="shade" x1="0" y1="0" x2="0" y2="1">
      <stop offset="0" stop-color="#000" stop-opacity="0"/>
      <stop offset="1" stop-color="#000" stop-opacity="0.78"/>
    </linearGradient>
  </defs>
  <rect width="400" height="600" fill="url(#bg)"/>
  <circle cx="290" cy="185" r="72" fill="#fff3d1"/>
     <path d="M0 360 C 80 330, 170 340, 250 352 C 320 362, 360 350, 400 340 V600 H0 Z" fill="#d9844f"/>
     <g fill="#3b1a10" transform="translate(96 372)"><ellipse cx="0" cy="0" rx="18" ry="9"/><ellipse cx="-2" cy="-9" rx="8" ry="7"/><path d="M14 -4 L24 -18 L30 -18 L30 -12 L24 -12 L18 2 Z"/><rect x="-14" y="5" width="3" height="16"/><rect x="-6" y="5" width="3" height="16"/><rect x="6" y="5" width="3" height="16"/><rect x="12" y="5" width="3" height="16"/></g><g fill="#3b1a10" transform="translate(150 368)"><ellipse cx="0" cy="0" rx="18" ry="9"/><ellipse cx="-2" cy="-9" rx="8" ry="7"/><path d="M14 -4 L24 -18 L30 -18 L30 -12 L24 -12 L18 2 Z"/><rect x="-14" y="5" width="3" height="16"/><rect x="-6" y="5" width="3" height="16"/><rect x="6" y="5" width="3" height="16"/><rect x="12" y="5" width="3" height="16"/></g><g fill="#3b1a10" transform="translate(204 364)"><ellipse cx="0" cy="0" rx="18" ry="9"/><ellipse cx="-2" cy="-9" rx="8" ry="7"/><path d="M14 -4 L24 -18 L30 -18 L30 -12 L24 -12 L18 2 Z"/><rect x="-14" y="5" width="3" height="16"/><rect x="-6" y="5" width="3" height="16"/><rect x="6" y="5" width="3" height="16"/><rect x="12" y="5" width="3" height="16"/></g><g fill="#3b1a10" transform="translate(258 360)"><ellipse cx="0" cy="0" rx="18" ry="9"/><ellipse cx="-2" cy="-9" rx="8" ry="7"/><path d="M14 -4 L24 -18 L30 -18 L30 -12 L24 -12 L18 2 Z"/><rect x="-14" y="5" width="3" height="16"/><rect x="-6" y="5" width="3" height="16"/><rect x="6" y="5" width="3" height="16"/><rect x="12" y="5" width="3" height="16"/></g>
     <path d="M0 420 C 100 390, 210 410, 300 400 C 350 395, 380 400, 400 396 V600 H0 Z" fill="#b5603b"/>
     <path d="M0 480 C 120 450, 240 470, 400 446 V600 H0 Z" fill="#8a3f26"/>
  <rect y="330" width="400" height="270" fill="url(#shade)"/>
  <text x="32" y="44" font-family="Segoe UI, Arial, sans-serif" font-size="13" font-weight="700" fill="#ffffff" fill-opacity="0.85" letter-spacing="3">ПРЕМЬЕРА · 2026</text>
  <rect x="318" y="24" width="56" height="30" rx="8" fill="#000" fill-opacity="0.45" stroke="#fff" stroke-opacity="0.6"/>
  <text x="346" y="45" text-anchor="middle" font-family="Segoe UI, Arial, sans-serif" font-size="15" font-weight="700" fill="#fff">6+</text>
  <text x="32" y="452" font-family="Segoe UI, Arial, sans-serif" font-size="15" fill="#ffffff" fill-opacity="0.88">Ұлы Жібек жолындағы ең ұзақ сапар</text>
  <text x="32" y="506" font-family="Segoe UI, Arial, sans-serif" font-size="50" font-weight="800" fill="#ffffff" letter-spacing="1">СОҢҒЫ</text><text x="32" y="560" font-family="Segoe UI, Arial, sans-serif" font-size="50" font-weight="800" fill="#ffffff" letter-spacing="1">КЕРУЕН</text>
</svg>
